<?xml version="1.0" encoding="utf-8"?>
<!-- Generator: Adobe Illustrator 16.0.4, SVG Export Plug-In . SVG Version: 6.00 Build 0)  -->
<!DOCTYPE svg PUBLIC "-//W3C//DTD SVG 1.1//EN" "http://www.w3.org/Graphics/SVG/1.1/DTD/svg11.dtd">
<svg version="1.1" id="Layer_1" xmlns="http://www.w3.org/2000/svg" xmlns:xlink="http://www.w3.org/1999/xlink" x="0px" y="0px"
	 width="864px" height="864px" viewBox="0 0 864 864" enable-background="new 0 0 864 864" xml:space="preserve">
<g>
	<g>
		<g>
			<g>
				<g>
					<path fill="#8AA44D" d="M828.734,427.898c0,224.374-181.897,406.276-406.273,406.276
						c-224.382,0-406.276-181.902-406.276-406.276c0-224.384,181.894-406.276,406.276-406.276
						C646.837,21.623,828.734,203.515,828.734,427.898z"/>
				</g>
			</g>
		</g>
		<g>
			<g>
				<g>
					<path fill="#FFFFFF" d="M612.448,690.542H232.469c-9.271,0-16.788-7.512-16.788-16.78V182.034
						c0-9.27,7.518-16.787,16.788-16.787h379.979c9.273,0,16.791,7.518,16.791,16.787v491.728
						C629.239,683.03,621.722,690.542,612.448,690.542z M249.255,656.972h346.409V198.82H249.255V656.972z"/>
				</g>
				<g>
					<path fill="#FFFFFF" d="M334.276,313.811h-42.077c-3.708,0-6.714-3.003-6.714-6.711v-42.082c0-3.706,3.006-6.711,6.714-6.711
						h42.077c3.708,0,6.714,3.005,6.714,6.711V307.1C340.991,310.808,337.985,313.811,334.276,313.811z M298.914,300.382h28.648
						v-28.647h-28.648V300.382z"/>
					<path fill="#FFFFFF" d="M334.276,407.814h-42.077c-3.708,0-6.714-3.004-6.714-6.714v-42.078c0-3.705,3.006-6.714,6.714-6.714
						h42.077c3.708,0,6.714,3.009,6.714,6.714v42.078C340.991,404.811,337.985,407.814,334.276,407.814z M298.914,394.384h28.648
						v-28.646h-28.648V394.384z"/>
					<path fill="#FFFFFF" d="M334.276,501.822h-42.077c-3.708,0-6.714-3.011-6.714-6.719v-42.079c0-3.704,3.006-6.715,6.714-6.715
						h42.077c3.708,0,6.714,3.011,6.714,6.715v42.079C340.991,498.812,337.985,501.822,334.276,501.822z M298.914,488.389h28.648
						v-28.65h-28.648V488.389z"/>
					<path fill="#FFFFFF" d="M334.276,595.822h-42.077c-3.708,0-6.714-3.006-6.714-6.714v-42.081c0-3.707,3.006-6.713,6.714-6.713
						h42.077c3.708,0,6.714,3.006,6.714,6.713v42.081C340.991,592.816,337.985,595.822,334.276,595.822z M298.914,582.392h28.648
						v-28.65h-28.648V582.392z"/>
					<path fill="#FFFFFF" d="M552.721,292.772H373.667c-3.706,0-6.714-3.008-6.714-6.714s3.008-6.714,6.714-6.714h179.054
						c3.708,0,6.714,3.008,6.714,6.714S556.429,292.772,552.721,292.772z"/>
					<path fill="#FFFFFF" d="M552.721,386.775H373.667c-3.706,0-6.714-3.006-6.714-6.712c0-3.708,3.008-6.716,6.714-6.716h179.054
						c3.708,0,6.714,3.008,6.714,6.716C559.435,383.769,556.429,386.775,552.721,386.775z"/>
					<path fill="#FFFFFF" d="M552.721,480.778H373.667c-3.706,0-6.714-3.004-6.714-6.715c0-3.708,3.008-6.714,6.714-6.714h179.054
						c3.708,0,6.714,3.006,6.714,6.714C559.435,477.774,556.429,480.778,552.721,480.778z"/>
					<path fill="#FFFFFF" d="M552.721,574.783H373.667c-3.706,0-6.714-3.006-6.714-6.715c0-3.71,3.008-6.714,6.714-6.714h179.054
						c3.708,0,6.714,3.004,6.714,6.714C559.435,571.777,556.429,574.783,552.721,574.783z"/>
				</g>
				<path fill="#FFFFFF" d="M316.037,298.143c-2.121,0-4.063-1.254-4.922-3.222c-2.868-6.576-5.114-8.356-5.657-8.71
					c-2.472-0.484-4.334-2.661-4.334-5.271c0-2.964,2.405-5.372,5.371-5.372c1.561,0,4.738,0.632,8.414,4.883
					c5.604-12.505,17.333-31.166,37.39-30.654c2.963,0.081,5.304,2.55,5.226,5.514c-0.081,2.964-2.536,5.292-5.511,5.226
					c-8.498-0.227-16.247,5.153-22.918,15.994c-5.374,8.736-7.854,17.584-7.877,17.67c-0.603,2.195-2.527,3.771-4.798,3.931
					C316.291,298.14,316.163,298.143,316.037,298.143z"/>
				<path fill="#FFFFFF" d="M316.037,392.148c-2.121,0-4.063-1.256-4.922-3.225c-2.868-6.573-5.114-8.353-5.657-8.71
					c-2.472-0.481-4.334-2.656-4.334-5.27c0-2.965,2.405-5.369,5.371-5.369c1.561,0,4.738,0.627,8.414,4.882
					c5.604-12.502,17.333-31.171,37.39-30.654c2.963,0.079,5.304,2.547,5.226,5.511c-0.081,2.967-2.536,5.326-5.511,5.229
					c-8.498-0.202-16.247,5.153-22.918,15.992c-5.374,8.738-7.854,17.586-7.877,17.672c-0.603,2.192-2.527,3.767-4.798,3.927
					C316.291,392.142,316.163,392.148,316.037,392.148z"/>
				<path fill="#FFFFFF" d="M316.037,486.15c-2.121,0-4.063-1.257-4.922-3.225c-2.868-6.574-5.114-8.354-5.657-8.709
					c-2.472-0.479-4.334-2.66-4.334-5.27c0-2.965,2.405-5.372,5.371-5.372c1.561,0,4.738,0.63,8.414,4.883
					c5.604-12.506,17.333-31.167,37.39-30.653c2.963,0.077,5.304,2.544,5.226,5.514c-0.081,2.965-2.536,5.316-5.511,5.224
					c-8.498-0.203-16.247,5.155-22.918,15.995c-5.374,8.738-7.854,17.583-7.877,17.67c-0.603,2.197-2.527,3.768-4.798,3.929
					C316.291,486.146,316.163,486.15,316.037,486.15z"/>
			</g>
		</g>
	</g>
</g>
</svg>
